<svg width="22" height="24" viewBox="0 0 22 24" fill="none" xmlns="http://www.w3.org/2000/svg">
<path d="M0.864 11.448C0.864 10.0613 1.12 8.70667 1.632 7.384C2.144 6.04 2.89067 4.824 3.872 3.736C4.85333 2.648 6.048 1.784 7.456 1.144C8.864 0.482665 10.464 0.151999 12.256 0.151999C14.3893 0.151999 16.2347 0.610666 17.792 1.528C19.3707 2.44533 20.544 3.64 21.312 5.112L17.28 7.928C16.9387 7.11733 16.48 6.488 15.904 6.04C15.3493 5.592 14.7307 5.28267 14.048 5.112C13.3867 4.92 12.7467 4.824 12.128 4.824C11.1253 4.824 10.2507 5.02667 9.504 5.432C8.75733 5.816 8.13867 6.33867 7.648 7C7.15733 7.66133 6.79467 8.39733 6.56 9.208C6.32533 10.0187 6.208 10.8293 6.208 11.64C6.208 12.536 6.34667 13.4 6.624 14.232C6.90133 15.064 7.296 15.8 7.808 16.44C8.34133 17.08 8.98133 17.592 9.728 17.976C10.4747 18.3387 11.296 18.52 12.192 18.52C12.832 18.52 13.4827 18.4133 14.144 18.2C14.8053 17.9867 15.4133 17.656 15.968 17.208C16.544 16.7387 16.9813 16.1307 17.28 15.384L21.568 17.912C21.12 19.0213 20.384 19.9707 19.36 20.76C18.336 21.5493 17.1733 22.1573 15.872 22.584C14.592 22.9893 13.3227 23.192 12.064 23.192C10.4213 23.192 8.90667 22.8613 7.52 22.2C6.15467 21.5173 4.97067 20.6213 3.968 19.512C2.98667 18.3813 2.21867 17.1227 1.664 15.736C1.13067 14.328 0.864 12.8987 0.864 11.448Z" fill="#8F3985"/>
</svg>
